# xmcd CD database file
#
# Track frame offsets:
#	150
#	19835
#	32557
#	53883
#	78397
#	101862
#	128040
#	159284
#	173387
#	196595
#	221295
#	226497
#	250124
#	256607
#	275370
#
# Disc length: 3703 seconds
#
# Revision: 0
# Processed by: cddbd v1.5.2PL0 Copyright (c) Steve Scherf et al.
# Submitted via: CDex 1.79
#
DISCID=b20e750f
DTITLE=Steven Halpern - Crystal Bowl Healing
DYEAR=2003
DGENRE=New Age
TTITLE0=Stargate: Invocation
TTITLE1=Golden Alchemy
TTITLE2=Egyptian Blue Infinity
TTITLE3=Crystal Chalice
TTITLE4=Binaurl Entrainment
TTITLE5=Celestial Highway
TTITLE6=Tibetan - Egyptian
TTITLE7=Crystal Angels
TTITLE8=Crystal Healing
TTITLE9=Sonic Satori II
TTITLE10=Practitioner's Bowl
TTITLE11=Time Being II
TTITLE12=High Tuning Forks
TTITLE13=Deep Bowl
TTITLE14=Closing
EXTD=YEAR: 2003
EXTT0=
EXTT1=
EXTT2=
EXTT3=
EXTT4=
EXTT5=
EXTT6=
EXTT7=
EXTT8=
EXTT9=
EXTT10=
EXTT11=
EXTT12=
EXTT13=
EXTT14=
PLAYORDER=
